<?xml version="1.0" encoding="utf-8"?>
<!-- Generator: Adobe Illustrator 16.0.0, SVG Export Plug-In . SVG Version: 6.00 Build 0)  -->
<!DOCTYPE svg PUBLIC "-//W3C//DTD SVG 1.1//EN" "http://www.w3.org/Graphics/SVG/1.1/DTD/svg11.dtd">
<svg version="1.1" id="Layer_1" xmlns="http://www.w3.org/2000/svg" xmlns:xlink="http://www.w3.org/1999/xlink" x="0px" y="0px"
	 width="50px" height="50px" viewBox="-0.5 1.5 50 50" enable-background="new -0.5 1.5 50 50" xml:space="preserve">
<g id="Layer_2" display="none">
	<g display="inline">
		<path d="M41.615,9.73H8.385c-0.276,0-0.5,0.224-0.5,0.5v22.154c0,0.189,0.107,0.363,0.277,0.447
			c2.705,1.353,4.461,1.741,5.261,1.854v6.93c0,0.189,0.107,0.361,0.276,0.447c0.071,0.035,0.147,0.053,0.224,0.053
			c0.106,0,0.212-0.033,0.3-0.102l7.232-5.425c1.114,0.099,2.198,0.146,3.229,0.146h0.001c17.229,0,17.431-13.445,17.431-13.583
			V10.23C42.115,9.955,41.893,9.73,41.615,9.73z M41.115,23.153c-0.002,0.514-0.223,12.583-16.431,12.583h-0.001
			c-1.059,0-2.179-0.053-3.33-0.156c-0.123-0.012-0.246,0.023-0.345,0.098l-6.585,4.938V34.23c0-0.274-0.223-0.498-0.497-0.5
			c-0.018,0-1.717-0.039-5.041-1.657V10.73h32.23V23.153z"/>
		<path d="M21.308,19.672c0.276,0,0.5-0.224,0.5-0.5c0-2.693,2.49-2.902,3.254-2.902c2.724,0,3.131,2.136,3.131,3.409
			c0,1.509-0.723,2.003-1.639,2.63c-0.929,0.635-1.969,1.347-2.117,3.159c-0.012,0.042-0.018,0.087-0.018,0.134v0.321
			c0,0.276,0.224,0.5,0.5,0.5s0.5-0.224,0.5-0.5c0-1.626,0.788-2.165,1.698-2.789c0.972-0.666,2.071-1.419,2.071-3.456
			c0-2.131-1.086-4.409-4.129-4.409c-1.962,0-4.254,1.022-4.254,3.902C20.808,19.448,21.031,19.672,21.308,19.672z"/>
		<path d="M25,28.691c-1.021,0-1.846,0.826-1.846,1.848c0,1.02,0.825,1.846,1.846,1.846c1.023,0,1.846-0.826,1.846-1.846
			C26.846,29.518,26.023,28.691,25,28.691z"/>
	</g>
</g>
<g>
	<path d="M27.5,38.5h-4c-0.552,0-1,0.447-1,1s0.448,1,1,1h4c0.553,0,1-0.447,1-1S28.053,38.5,27.5,38.5z"/>
	<path d="M36.055,24.667l-3-2c-0.275-0.184-0.623-0.22-0.926-0.097l-4.479,1.792L24.1,21.7c-0.273-0.205-0.632-0.257-0.951-0.137
		l-8,3c-0.39,0.146-0.649,0.52-0.649,0.937v15.834c0,1.555,0.629,5.166,6.455,5.166h9.09c5.826,0,6.455-3.611,6.455-5.166V25.5
		C36.5,25.165,36.333,24.853,36.055,24.667z M34.5,41.334c0,0.783,0,3.166-4.455,3.166h-9.09c-4.455,0-4.455-2.383-4.455-3.166
		V26.191l6.838-2.563l3.563,2.671c0.279,0.209,0.646,0.258,0.971,0.129l4.512-1.805l2.117,1.412V41.334z"/>
	<path d="M30.955,6.5h-10.91c-4.583,0-5.545,2.572-5.545,4.73V21.5c0,0.328,0.161,0.635,0.43,0.822
		c0.27,0.187,0.614,0.229,0.921,0.115l7.487-2.808L26.9,22.3c0.176,0.132,0.387,0.2,0.6,0.2c0.125,0,0.251-0.023,0.371-0.071
		l4.512-1.805l2.563,1.708c0.307,0.205,0.703,0.224,1.027,0.05c0.324-0.175,0.527-0.514,0.527-0.882V11.23
		C36.5,9.072,35.538,6.5,30.955,6.5z M34.5,19.631l-1.445-0.963c-0.275-0.184-0.623-0.218-0.926-0.097l-4.479,1.792L24.1,17.7
		c-0.176-0.132-0.387-0.2-0.6-0.2c-0.118,0-0.237,0.021-0.351,0.063L16.5,20.057V11.23c0-1.418,0.43-2.73,3.545-2.73h10.91
		c3.115,0,3.545,1.312,3.545,2.73V19.631z"/>
</g>
</svg>
