<?xml version="1.0" encoding="utf-8"?>
<!-- Generator: Adobe Illustrator 16.0.0, SVG Export Plug-In . SVG Version: 6.00 Build 0)  -->
<!DOCTYPE svg PUBLIC "-//W3C//DTD SVG 1.1//EN" "http://www.w3.org/Graphics/SVG/1.1/DTD/svg11.dtd">
<svg version="1.1" id="Layer_1" xmlns="http://www.w3.org/2000/svg" xmlns:xlink="http://www.w3.org/1999/xlink" x="0px" y="0px"
	 width="50px" height="50px" viewBox="0 0 50 50" enable-background="new 0 0 50 50" xml:space="preserve">
<g id="Layer_2" display="none">
	<g display="inline">
		<path fill="#0F58DC" d="M41.615,9.73H8.385c-0.276,0-0.5,0.224-0.5,0.5v22.154c0,0.189,0.107,0.363,0.277,0.447
			c2.705,1.353,4.461,1.741,5.261,1.854v6.93c0,0.189,0.107,0.361,0.276,0.447c0.071,0.035,0.147,0.053,0.224,0.053
			c0.106,0,0.212-0.033,0.3-0.102l7.232-5.423c1.114,0.097,2.198,0.146,3.229,0.146h0.001c17.229,0,17.431-13.446,17.431-13.583
			V10.23C42.115,9.955,41.893,9.73,41.615,9.73z M41.115,23.153c-0.002,0.514-0.223,12.583-16.431,12.583h-0.001
			c-1.059,0-2.179-0.053-3.33-0.156c-0.123-0.012-0.246,0.023-0.345,0.098l-6.585,4.938V34.23c0-0.274-0.223-0.498-0.497-0.5
			c-0.018,0-1.717-0.039-5.041-1.657V10.73h32.23V23.153z"/>
		<path fill="#0F58DC" d="M21.308,19.672c0.276,0,0.5-0.224,0.5-0.5c0-2.693,2.49-2.902,3.254-2.902
			c2.724,0,3.131,2.136,3.131,3.409c0,1.509-0.723,2.003-1.639,2.63c-0.927,0.635-1.967,1.347-2.115,3.159
			c-0.012,0.042-0.018,0.087-0.018,0.134v0.321c0,0.276,0.224,0.5,0.5,0.5c0.276,0,0.5-0.224,0.5-0.5
			c0-1.626,0.788-2.165,1.698-2.789c0.972-0.666,2.073-1.419,2.073-3.456c0-2.131-1.086-4.409-4.131-4.409
			c-1.962,0-4.254,1.022-4.254,3.902C20.808,19.448,21.031,19.672,21.308,19.672z"/>
		<path fill="#0F58DC" d="M25,28.691c-1.021,0-1.846,0.826-1.846,1.848c0,1.02,0.825,1.846,1.846,1.846
			c1.023,0,1.846-0.826,1.846-1.846C26.846,29.518,26.023,28.691,25,28.691z"/>
	</g>
</g>
<g>
	<path fill="#0F58DC" d="M35.91,40L35.91,40H12.278C7.327,40,4,36.909,4,32.311C4,29.027,6.023,26,8.946,24.71
		c-0.265-0.745-0.402-1.533-0.402-2.326c0-4.29,3.953-7.739,8.442-7.069c2.104-3.044,5.408-4.587,9.833-4.587
		c6.894,0,12.365,4.544,12.789,10.471c0.328,0.139,0.645,0.306,0.955,0.501C43.868,23.306,46,26.699,46,30.365
		C46,35.761,41.568,39.992,35.91,40z M15.909,17.234c-2.958,0-5.365,2.311-5.365,5.15c0,0.842,0.218,1.677,0.63,2.417
		c0.149,0.269,0.167,0.591,0.048,0.875c-0.12,0.284-0.362,0.496-0.659,0.577C7.919,26.973,6,29.52,6,32.311
		C6,35.818,8.406,38,12.278,38h23.63C40.445,37.994,44,34.641,44,30.365c0-2.92-1.709-5.624-4.354-6.887
		c-0.039-0.018-0.074-0.038-0.109-0.061c-0.381-0.244-0.77-0.424-1.189-0.551c-0.422-0.127-0.709-0.514-0.711-0.954
		c-0.021-5.749-5.516-9.184-10.816-9.184c-4.01,0-6.792,1.378-8.503,4.214c-0.224,0.372-0.664,0.559-1.089,0.456
		C16.766,17.288,16.335,17.234,15.909,17.234z"/>
</g>
</svg>
