<?xml version="1.0" encoding="utf-8"?>
<!-- Generator: Adobe Illustrator 16.0.0, SVG Export Plug-In . SVG Version: 6.00 Build 0)  -->
<!DOCTYPE svg PUBLIC "-//W3C//DTD SVG 1.1//EN" "http://www.w3.org/Graphics/SVG/1.1/DTD/svg11.dtd">
<svg version="1.1" id="Layer_1" xmlns="http://www.w3.org/2000/svg" xmlns:xlink="http://www.w3.org/1999/xlink" x="0px" y="0px"
	 width="50px" height="50px" viewBox="0 0 50 50" enable-background="new 0 0 50 50" xml:space="preserve">
<g id="Layer_2" display="none">
	<g display="inline">
		<path fill="#0F58DC" d="M41.615,9.73H8.385c-0.276,0-0.5,0.224-0.5,0.5v22.154c0,0.189,0.107,0.363,0.277,0.447
			c2.705,1.353,4.461,1.741,5.261,1.854v6.93c0,0.189,0.107,0.361,0.276,0.447c0.071,0.035,0.147,0.053,0.224,0.053
			c0.106,0,0.212-0.033,0.3-0.102l7.232-5.423c1.114,0.097,2.198,0.146,3.229,0.146h0.001c17.229,0,17.431-13.446,17.431-13.583
			V10.23C42.115,9.955,41.893,9.73,41.615,9.73z M41.115,23.153c-0.002,0.514-0.223,12.583-16.431,12.583h-0.001
			c-1.059,0-2.179-0.053-3.33-0.156c-0.123-0.012-0.246,0.023-0.345,0.098l-6.585,4.938V34.23c0-0.274-0.223-0.498-0.497-0.5
			c-0.018,0-1.717-0.039-5.041-1.657V10.73h32.23V23.153z"/>
		<path fill="#0F58DC" d="M21.308,19.672c0.276,0,0.5-0.224,0.5-0.5c0-2.693,2.49-2.902,3.254-2.902
			c2.724,0,3.131,2.136,3.131,3.409c0,1.509-0.723,2.003-1.639,2.63c-0.927,0.635-1.967,1.347-2.115,3.159
			c-0.012,0.042-0.018,0.087-0.018,0.134v0.321c0,0.276,0.224,0.5,0.5,0.5c0.276,0,0.5-0.224,0.5-0.5
			c0-1.626,0.788-2.165,1.698-2.789c0.972-0.666,2.073-1.419,2.073-3.456c0-2.131-1.086-4.409-4.131-4.409
			c-1.962,0-4.254,1.022-4.254,3.902C20.808,19.448,21.031,19.672,21.308,19.672z"/>
		<path fill="#0F58DC" d="M25,28.691c-1.021,0-1.846,0.826-1.846,1.848c0,1.02,0.825,1.846,1.846,1.846
			c1.023,0,1.846-0.826,1.846-1.846C26.846,29.518,26.023,28.691,25,28.691z"/>
	</g>
</g>
<g>
	<path fill="#0F58DC" d="M38.566,3.176c-0.271-0.187-0.618-0.227-0.926-0.109l-26,10C11.255,13.215,11,13.586,11,14v32
		c0,0.553,0.448,1,1,1h9h8h9c0.553,0,1-0.447,1-1V4C39,3.67,38.838,3.362,38.566,3.176z M22,45v-4h2.083v4H22z M26.083,45v-4H28v4
		H26.083z M37,45h-7v-5c0-0.553-0.447-1-1-1h-8c-0.552,0-1,0.447-1,1v5h-7V14.687l24-9.231V45z"/>
	<path fill="#0F58DC" d="M28,32c0.553,0,1-0.447,1-1v-2c0-0.553-0.447-1-1-1s-1,0.447-1,1v2C27,31.553,27.447,32,28,32z"/>
	<path fill="#0F58DC" d="M34,26c0.553,0,1-0.447,1-1v-2c0-0.552-0.447-1-1-1c-0.552,0-1,0.448-1,1v2C33,25.553,33.448,26,34,26z"/>
	<path fill="#0F58DC" d="M34,20c0.553,0,1-0.447,1-1v-2c0-0.552-0.447-1-1-1c-0.552,0-1,0.448-1,1v2C33,19.553,33.448,20,34,20z"/>
	<path fill="#0F58DC" d="M28,26c0.553,0,1-0.447,1-1v-2c0-0.552-0.447-1-1-1s-1,0.448-1,1v2C27,25.553,27.447,26,28,26z"/>
	<path fill="#0F58DC" d="M28,20c0.553,0,1-0.447,1-1v-2c0-0.552-0.447-1-1-1s-1,0.448-1,1v2C27,19.553,27.447,20,28,20z"/>
	<path fill="#0F58DC" d="M22,32c0.553,0,1-0.447,1-1v-2c0-0.553-0.447-1-1-1s-1,0.447-1,1v2C21,31.553,21.447,32,22,32z"/>
	<path fill="#0F58DC" d="M22,26c0.553,0,1-0.447,1-1v-2c0-0.552-0.447-1-1-1s-1,0.448-1,1v2C21,25.553,21.447,26,22,26z"/>
	<path fill="#0F58DC" d="M22,20c0.553,0,1-0.447,1-1v-2c0-0.552-0.447-1-1-1s-1,0.448-1,1v2C21,19.553,21.447,20,22,20z"/>
	<path fill="#0F58DC" d="M16,32c0.552,0,1-0.447,1-1v-2c0-0.553-0.448-1-1-1c-0.553,0-1,0.447-1,1v2C15,31.553,15.447,32,16,32z"/>
	<path fill="#0F58DC" d="M16,26c0.552,0,1-0.447,1-1v-2c0-0.552-0.448-1-1-1c-0.553,0-1,0.448-1,1v2C15,25.553,15.447,26,16,26z"/>
	<path fill="#0F58DC" d="M16,20c0.552,0,1-0.447,1-1v-2c0-0.552-0.448-1-1-1c-0.553,0-1,0.448-1,1v2C15,19.553,15.447,20,16,20z"/>
	<path fill="#0F58DC" d="M34,14c0.553,0,1-0.447,1-1v-2c0-0.552-0.447-1-1-1c-0.552,0-1,0.448-1,1v2C33,13.553,33.448,14,34,14z"/>
	<path fill="#0F58DC" d="M16,38v4c0,0.553,0.447,1,1,1s1-0.447,1-1v-4c0-0.553-0.447-1-1-1S16,37.447,16,38z"/>
	<path fill="#0F58DC" d="M33,43c0.553,0,1-0.447,1-1v-4c0-0.553-0.447-1-1-1c-0.552,0-1,0.447-1,1v4C32,42.553,32.448,43,33,43z"/>
</g>
</svg>
