<?xml version="1.0" encoding="utf-8"?>
<!-- Generator: Adobe Illustrator 16.0.0, SVG Export Plug-In . SVG Version: 6.00 Build 0)  -->
<!DOCTYPE svg PUBLIC "-//W3C//DTD SVG 1.1//EN" "http://www.w3.org/Graphics/SVG/1.1/DTD/svg11.dtd">
<svg version="1.1" id="Layer_1" xmlns="http://www.w3.org/2000/svg" xmlns:xlink="http://www.w3.org/1999/xlink" x="0px" y="0px"
	 width="50px" height="50px" viewBox="0 0 50 50" enable-background="new 0 0 50 50" xml:space="preserve">
<g id="Layer_2" display="none">
	<g display="inline">
		<path fill="#0F58DC" d="M41.615,9.73H8.385c-0.276,0-0.5,0.224-0.5,0.5v22.154c0,0.189,0.107,0.363,0.277,0.447
			c2.705,1.353,4.461,1.741,5.261,1.854v6.93c0,0.189,0.107,0.361,0.276,0.447c0.071,0.035,0.147,0.053,0.224,0.053
			c0.106,0,0.212-0.033,0.3-0.102l7.232-5.423c1.114,0.097,2.198,0.146,3.229,0.146h0.001c17.229,0,17.431-13.446,17.431-13.583
			V10.23C42.115,9.955,41.893,9.73,41.615,9.73z M41.115,23.153c-0.002,0.514-0.223,12.583-16.431,12.583h-0.001
			c-1.059,0-2.179-0.053-3.33-0.156c-0.123-0.012-0.246,0.023-0.345,0.098l-6.585,4.938V34.23c0-0.274-0.223-0.498-0.497-0.5
			c-0.018,0-1.717-0.039-5.041-1.657V10.73h32.23V23.153z"/>
		<path fill="#0F58DC" d="M21.308,19.672c0.276,0,0.5-0.224,0.5-0.5c0-2.693,2.49-2.902,3.254-2.902
			c2.724,0,3.131,2.136,3.131,3.409c0,1.509-0.723,2.003-1.639,2.63c-0.927,0.635-1.967,1.347-2.115,3.159
			c-0.012,0.042-0.018,0.087-0.018,0.134v0.321c0,0.276,0.224,0.5,0.5,0.5c0.276,0,0.5-0.224,0.5-0.5
			c0-1.626,0.788-2.165,1.698-2.789c0.972-0.666,2.073-1.419,2.073-3.456c0-2.131-1.086-4.409-4.131-4.409
			c-1.962,0-4.254,1.022-4.254,3.902C20.808,19.448,21.031,19.672,21.308,19.672z"/>
		<path fill="#0F58DC" d="M25,28.691c-1.021,0-1.846,0.826-1.846,1.848c0,1.02,0.825,1.846,1.846,1.846
			c1.023,0,1.846-0.826,1.846-1.846C26.846,29.518,26.023,28.691,25,28.691z"/>
	</g>
</g>
<g>
	<g>
		<path fill="#0F58DC" d="M15.5,15h-3c-0.552,0-1-0.448-1-1s0.448-1,1-1h3c0.552,0,1,0.448,1,1S16.052,15,15.5,15z"/>
	</g>
</g>
<g>
	<g>
		<path fill="#0F58DC" d="M15.5,24h-3c-0.552,0-1-0.447-1-1s0.448-1,1-1h3c0.552,0,1,0.447,1,1S16.052,24,15.5,24z"/>
	</g>
</g>
<g>
	<g>
		<path fill="#0F58DC" d="M15.5,33h-3c-0.552,0-1-0.447-1-1s0.448-1,1-1h3c0.552,0,1,0.447,1,1S16.052,33,15.5,33z"/>
	</g>
</g>
<path fill="#0F58DC" d="M38.654,8H11.345C8.949,8,7,9.908,7,12.253v21.495C7,36.093,8.949,38,11.345,38H12v2c0,0.553,0.448,1,1,1h7
	c0.553,0,1-0.447,1-1v-2h8v2c0,0.553,0.447,1,1,1h7c0.553,0,1-0.447,1-1v-2h0.654C41.051,38,43,36.093,43,33.748V12.253
	C43,9.908,41.051,8,38.654,8z M19,39h-5v-1h5V39z M36,39h-5v-1h5V39z M41,33.748C41,34.99,39.947,36,38.654,36H11.345
	C10.052,36,9,34.99,9,33.748V28.5h32V33.748z M41,26.5H9v-7h32V26.5z M41,17.5H9v-5.247C9,11.011,10.052,10,11.345,10h27.311
	C39.947,10,41,11.011,41,12.253V17.5z"/>
</svg>
