<?xml version="1.0" encoding="utf-8"?>
<!-- Generator: Adobe Illustrator 16.0.0, SVG Export Plug-In . SVG Version: 6.00 Build 0)  -->
<!DOCTYPE svg PUBLIC "-//W3C//DTD SVG 1.1//EN" "http://www.w3.org/Graphics/SVG/1.1/DTD/svg11.dtd">
<svg version="1.1" id="Layer_1" xmlns="http://www.w3.org/2000/svg" xmlns:xlink="http://www.w3.org/1999/xlink" x="0px" y="0px"
	 width="50px" height="50px" viewBox="0 0 50 50" enable-background="new 0 0 50 50" xml:space="preserve">
<g id="Layer_2" display="none">
	<g display="inline">
		<path fill="#0F58DC" d="M41.615,9.73H8.385c-0.276,0-0.5,0.224-0.5,0.5v22.154c0,0.189,0.107,0.363,0.277,0.447
			c2.705,1.353,4.461,1.741,5.261,1.854v6.93c0,0.189,0.107,0.361,0.276,0.447c0.071,0.035,0.147,0.053,0.224,0.053
			c0.106,0,0.212-0.033,0.3-0.102l7.232-5.423c1.114,0.097,2.198,0.146,3.229,0.146h0.001c17.229,0,17.431-13.446,17.431-13.583
			V10.23C42.115,9.955,41.893,9.73,41.615,9.73z M41.115,23.153c-0.002,0.514-0.223,12.583-16.431,12.583h-0.001
			c-1.059,0-2.179-0.053-3.33-0.156c-0.123-0.012-0.246,0.023-0.345,0.098l-6.585,4.938V34.23c0-0.274-0.223-0.498-0.497-0.5
			c-0.018,0-1.717-0.039-5.041-1.657V10.73h32.23V23.153z"/>
		<path fill="#0F58DC" d="M21.308,19.672c0.276,0,0.5-0.224,0.5-0.5c0-2.693,2.49-2.902,3.254-2.902
			c2.724,0,3.131,2.136,3.131,3.409c0,1.509-0.723,2.003-1.639,2.63c-0.927,0.635-1.967,1.347-2.115,3.159
			c-0.012,0.042-0.018,0.087-0.018,0.134v0.321c0,0.276,0.224,0.5,0.5,0.5c0.276,0,0.5-0.224,0.5-0.5
			c0-1.626,0.788-2.165,1.698-2.789c0.972-0.666,2.073-1.419,2.073-3.456c0-2.131-1.086-4.409-4.131-4.409
			c-1.962,0-4.254,1.022-4.254,3.902C20.808,19.448,21.031,19.672,21.308,19.672z"/>
		<path fill="#0F58DC" d="M25,28.691c-1.021,0-1.846,0.826-1.846,1.848c0,1.02,0.825,1.846,1.846,1.846
			c1.023,0,1.846-0.826,1.846-1.846C26.846,29.518,26.023,28.691,25,28.691z"/>
	</g>
</g>
<g>
	<path fill="#0F58DC" d="M46.822,36.982c-0.051-0.031-0.105-0.061-0.162-0.08c-1.514-0.58-3.946-1.603-5.121-2.27
		c0.001-0.035,0.016-0.07,0.016-0.105c0-0.533-0.423-0.963-0.949-0.99c-0.17-0.598-0.229-1.455-0.157-2.416
		c1.073-1.436,1.763-2.625,2.184-3.779c2.282-2.109,3.356-7.23,2.166-10.622c-0.926-2.636-3.016-3.961-5.856-3.657
		c-0.998-0.529-2.237-0.818-3.533-0.818c-2.992,0-5.659,1.426-6.963,3.721c-2.107,3.717,0.093,8.539,1.136,10.438
		c0.015,0.027,0.036,0.046,0.053,0.07c-0.003,0.101-0.004,0.199,0.026,0.303c0.395,1.343,1.127,2.687,2.378,4.354
		c0.06,0.951-0.007,1.811-0.175,2.406c-0.523,0.031-0.94,0.457-0.94,0.986c0,0.035,0.015,0.07,0.017,0.105
		c-0.33,0.188-0.842,0.451-1.635,0.813c-1.631,0.742-3.47,1.451-3.488,1.457c-0.057,0.021-0.109,0.051-0.162,0.082
		C24.049,37.961,23,38.77,23,41c0,0.553,0.447,1,1,1s1-0.447,1-1c0-1.152,0.268-1.436,1.616-2.264
		c0.392-0.152,2.012-0.787,3.514-1.471c0.802-0.367,1.351-0.646,1.745-0.867c0.896,0.813,2.385,1.408,4.361,1.408
		c2.063,0,3.529-0.582,4.396-1.395c1.63,0.912,4.409,2.008,5.224,2.32C46.957,39.416,47,39.643,47,41c0,0.553,0.447,1,1,1
		s1-0.447,1-1C49,39.018,48.671,38.111,46.822,36.982z M30.184,16.954c1.131-1.997,3.439-2.708,5.221-2.708
		c1.072,0,2.068,0.25,2.808,0.704c0.201,0.124,0.438,0.173,0.675,0.138c2.023-0.307,3.381,0.462,4.024,2.297
		c0.646,1.834,0.446,4.186-0.187,6.026c-0.422-1.517-1.425-3.375-3.598-5.35c-0.219-0.197-0.512-0.29-0.805-0.251
		c-0.29,0.039-0.551,0.204-0.709,0.451c-1.555,2.415-2.946,2.926-4.293,3.421c-1.021,0.373-2.063,0.755-2.875,1.878
		C29.7,21.679,29.033,18.98,30.184,16.954z M31.475,26.021c0.522-1.71,1.248-1.993,2.534-2.463c1.249-0.458,2.902-1.065,4.585-3.224
		c2.776,2.936,2.475,5.221,2.307,5.876c0,0-0.002,0.002-0.002,0.003c-0.383,1.301-1.188,2.655-2.707,4.555
		c-0.351,0.459-1.211,0.822-1.946,0.828c-0.75-0.006-1.611-0.369-1.978-0.847c-1.504-1.881-2.311-3.235-2.691-4.536
		C31.553,26.143,31.508,26.086,31.475,26.021z M33.366,35.051c0.344-0.592,0.53-1.305,0.618-2.023
		c0.732,0.381,1.563,0.563,2.258,0.568c0.686-0.005,1.506-0.188,2.234-0.561c0.086,0.746,0.281,1.463,0.643,2.054
		c-0.467,0.351-1.354,0.718-2.883,0.718C34.77,35.807,33.854,35.412,33.366,35.051z"/>
	<path fill="#0F58DC" d="M24.46,35.279c0.09,0.025,0.182,0.037,0.271,0.037c0.434,0,0.832-0.285,0.957-0.725
		c0.153-0.525-0.15-1.081-0.679-1.234c-0.008-0.004-0.629-0.195-1.465-0.744c0.024-0.139,0.041-0.275,0.041-0.406
		c0-0.553-0.447-1-1-1c-0.111,0-0.214,0.029-0.314,0.063c-0.235-0.709-0.157-1.64-0.079-2.494l0.03-0.346l0,0
		c0.864-1.27,1.5-2.385,1.955-3.438c2.664-3.667,3.441-9.652,1.688-13.143c-1.125-2.241-3.203-3.302-5.789-2.918
		C18.951,8.328,17.55,8,16.083,8C13.44,8,9.99,9.1,8.231,12.187c-2.713,4.762,1.124,10.619,1.798,11.582
		c0.444,1.401,1.183,2.838,2.339,4.549c0.001,0.015-0.005,0.023-0.004,0.037c0.076,0.912-0.107,2.045-0.567,2.903
		c-0.086-0.022-0.17-0.053-0.264-0.053c-0.553,0-1,0.446-1,1c0,0.104,0.01,0.209,0.024,0.313c-1.541,0.977-4.793,2.477-6.085,3.045
		c-0.041,0.018-0.081,0.039-0.119,0.063C2.612,36.689,1,38.078,1,41c0,0.553,0.447,1,1,1s1-0.447,1-1c0-1.65,0.57-2.54,2.341-3.632
		c0.682-0.302,4.21-1.878,6.167-3.089c1.072,1.061,2.988,1.846,5.552,1.846c2.78,0,4.526-0.791,5.507-1.762
		C23.623,35.036,24.416,35.268,24.46,35.279z M11.935,23.159c0.028-2.086,0.609-2.271,2.268-2.753
		c1.518-0.441,3.53-1.027,5.447-3.433c2.641,3.315,2.691,6.562,2.666,7.288c-0.544,1.238-1.376,2.595-2.627,4.289
		c-0.438,0.622-1.453,1.095-2.349,1.101c-0.772-0.006-1.862-0.393-2.374-1.117C13.346,26.34,12.424,24.705,11.935,23.159z
		 M9.97,13.176C11.304,10.834,14.003,10,16.083,10c1.253,0,2.419,0.294,3.285,0.827c0.216,0.131,0.471,0.179,0.718,0.129
		c1.878-0.371,3.201,0.212,3.993,1.789c1.051,2.093,0.911,5.553-0.145,8.432c-0.464-1.854-1.474-4.226-3.639-6.503
		c-0.189-0.199-0.452-0.311-0.725-0.311c-0.031,0-0.063,0.001-0.094,0.004c-0.306,0.029-0.581,0.196-0.747,0.455
		c-1.728,2.687-3.513,3.206-5.087,3.663c-1.226,0.357-2.479,0.722-3.172,2.055C9.521,18.56,8.596,15.587,9.97,13.176z
		 M13.058,32.971c0.545-0.697,0.906-1.547,1.11-2.42c0.958,0.74,2.209,1.094,3.172,1.1c0.868-0.006,1.924-0.281,2.81-0.852
		c0.074,0.807,0.301,1.605,0.855,2.283c-0.633,0.521-1.844,1.043-3.945,1.043C15.006,34.125,13.714,33.531,13.058,32.971z"/>
</g>
</svg>
