<?xml version="1.0" encoding="utf-8"?>
<!-- Generator: Adobe Illustrator 16.0.0, SVG Export Plug-In . SVG Version: 6.00 Build 0)  -->
<!DOCTYPE svg PUBLIC "-//W3C//DTD SVG 1.1//EN" "http://www.w3.org/Graphics/SVG/1.1/DTD/svg11.dtd">
<svg version="1.1" id="Layer_1" xmlns="http://www.w3.org/2000/svg" xmlns:xlink="http://www.w3.org/1999/xlink" x="0px" y="0px"
	 width="50px" height="50px" viewBox="0 0 50 50" enable-background="new 0 0 50 50" xml:space="preserve">
<g id="Layer_2" display="none">
	<g display="inline">
		<path fill="#0F58DC" d="M41.615,9.73H8.385c-0.276,0-0.5,0.224-0.5,0.5v22.154c0,0.189,0.107,0.363,0.277,0.447
			c2.705,1.353,4.461,1.741,5.261,1.854v6.93c0,0.189,0.107,0.361,0.276,0.447c0.071,0.035,0.147,0.053,0.224,0.053
			c0.106,0,0.212-0.033,0.3-0.102l7.232-5.423c1.114,0.097,2.198,0.146,3.229,0.146h0.001c17.229,0,17.431-13.446,17.431-13.583
			V10.23C42.115,9.955,41.893,9.73,41.615,9.73z M41.115,23.153c-0.002,0.514-0.223,12.583-16.431,12.583h-0.001
			c-1.059,0-2.179-0.053-3.33-0.156c-0.123-0.012-0.246,0.023-0.345,0.098l-6.585,4.938V34.23c0-0.274-0.223-0.498-0.497-0.5
			c-0.018,0-1.717-0.039-5.041-1.657V10.73h32.23V23.153z"/>
		<path fill="#0F58DC" d="M21.308,19.672c0.276,0,0.5-0.224,0.5-0.5c0-2.693,2.49-2.902,3.254-2.902
			c2.724,0,3.131,2.136,3.131,3.409c0,1.509-0.723,2.003-1.639,2.63c-0.927,0.635-1.967,1.347-2.115,3.159
			c-0.012,0.042-0.018,0.087-0.018,0.134v0.321c0,0.276,0.224,0.5,0.5,0.5c0.276,0,0.5-0.224,0.5-0.5
			c0-1.626,0.788-2.165,1.698-2.789c0.972-0.666,2.073-1.419,2.073-3.456c0-2.131-1.086-4.409-4.131-4.409
			c-1.962,0-4.254,1.022-4.254,3.902C20.808,19.448,21.031,19.672,21.308,19.672z"/>
		<path fill="#0F58DC" d="M25,28.691c-1.021,0-1.846,0.826-1.846,1.848c0,1.02,0.825,1.846,1.846,1.846
			c1.023,0,1.846-0.826,1.846-1.846C26.846,29.518,26.023,28.691,25,28.691z"/>
	</g>
</g>
<g>
	<path fill="#0F58DC" d="M41.615,8.23H8.385c-0.552,0-1,0.448-1,1v22.154c0,0.38,0.214,0.726,0.553,0.896
		c2.361,1.18,4.019,1.646,4.985,1.83v6.506c0,0.379,0.214,0.725,0.553,0.895c0.142,0.07,0.294,0.105,0.447,0.105
		c0.212,0,0.423-0.067,0.6-0.2l7.079-5.31c1.062,0.088,2.096,0.131,3.082,0.131c17.725,0,17.931-13.941,17.931-14.083V9.23
		C42.615,8.678,42.168,8.23,41.615,8.23z M40.615,22.154c0,0.493-0.184,12.083-15.931,12.083c-1.044,0-2.15-0.053-3.286-0.155
		c-0.247-0.024-0.492,0.047-0.69,0.196l-5.785,4.338V33.23c0-0.545-0.445-0.987-0.989-1c-0.016,0-1.548-0.051-4.549-1.472V10.23
		h31.23V22.154z"/>
	<path fill="#0F58DC" d="M21.308,19.172c0.552,0,1-0.448,1-1c0-2.09,1.726-2.402,2.754-2.402c2.174,0,2.631,1.582,2.631,2.909
		c0,1.245-0.535,1.611-1.422,2.218c-0.914,0.626-2.14,1.465-2.327,3.486c-0.016,0.07-0.024,0.145-0.024,0.219v0.321
		c0,0.554,0.448,1,1,1c0.552,0,1-0.446,1-1c0-1.362,0.589-1.766,1.479-2.376c0.968-0.662,2.291-1.568,2.291-3.868
		c0-2.373-1.217-4.909-4.63-4.909c-2.888,0-4.754,1.728-4.754,4.402C20.308,18.724,20.755,19.172,21.308,19.172z"/>
	<path fill="#0F58DC" d="M25,27.691c-1.021,0-1.846,0.826-1.846,1.848c0,1.02,0.825,1.846,1.846,1.846
		c1.023,0,1.846-0.826,1.846-1.846C26.846,28.518,26.023,27.691,25,27.691z"/>
</g>
</svg>
