<?xml version="1.0" encoding="utf-8"?>
<!-- Generator: Adobe Illustrator 16.0.0, SVG Export Plug-In . SVG Version: 6.00 Build 0)  -->
<!DOCTYPE svg PUBLIC "-//W3C//DTD SVG 1.1//EN" "http://www.w3.org/Graphics/SVG/1.1/DTD/svg11.dtd">
<svg version="1.1" id="Layer_1" xmlns="http://www.w3.org/2000/svg" xmlns:xlink="http://www.w3.org/1999/xlink" x="0px" y="0px"
	 width="50px" height="50px" viewBox="-0.5 1.5 50 50" enable-background="new -0.5 1.5 50 50" xml:space="preserve">
<g id="Layer_2" display="none">
	<g display="inline">
		<path d="M41.615,9.73H8.385c-0.276,0-0.5,0.224-0.5,0.5v22.154c0,0.189,0.107,0.363,0.277,0.447
			c2.705,1.353,4.461,1.741,5.261,1.854v6.93c0,0.189,0.107,0.361,0.276,0.447c0.071,0.035,0.147,0.053,0.224,0.053
			c0.106,0,0.212-0.033,0.3-0.102l7.232-5.425c1.114,0.099,2.198,0.146,3.229,0.146h0.001c17.229,0,17.431-13.445,17.431-13.583
			V10.23C42.115,9.955,41.893,9.73,41.615,9.73z M41.115,23.153c-0.002,0.514-0.223,12.583-16.431,12.583h-0.001
			c-1.059,0-2.179-0.053-3.33-0.156c-0.123-0.012-0.246,0.023-0.345,0.098l-6.585,4.938V34.23c0-0.274-0.223-0.498-0.497-0.5
			c-0.018,0-1.717-0.039-5.041-1.657V10.73h32.23V23.153z"/>
		<path d="M21.308,19.672c0.276,0,0.5-0.224,0.5-0.5c0-2.693,2.49-2.902,3.254-2.902c2.724,0,3.131,2.136,3.131,3.409
			c0,1.509-0.723,2.003-1.639,2.63c-0.929,0.635-1.969,1.347-2.117,3.159c-0.012,0.042-0.018,0.087-0.018,0.134v0.321
			c0,0.276,0.224,0.5,0.5,0.5s0.5-0.224,0.5-0.5c0-1.626,0.788-2.165,1.698-2.789c0.972-0.666,2.071-1.419,2.071-3.456
			c0-2.131-1.086-4.409-4.129-4.409c-1.962,0-4.254,1.022-4.254,3.902C20.808,19.448,21.031,19.672,21.308,19.672z"/>
		<path d="M25,28.691c-1.021,0-1.846,0.826-1.846,1.848c0,1.02,0.825,1.846,1.846,1.846c1.023,0,1.846-0.826,1.846-1.846
			C26.846,29.518,26.023,28.691,25,28.691z"/>
	</g>
</g>
<path d="M46.395,25.606l-7.252-14.551c-0.24-0.486-0.826-0.691-1.319-0.459l-3.563,1.676c-0.242,0.115-0.431,0.322-0.519,0.577
	c-0.089,0.25-0.068,0.524,0.046,0.763l-8.133-0.657c-0.203-0.018-0.408,0.03-0.586,0.133l-3.9,2.28l-5.88-1.391l0.176-0.354
	c0.12-0.241,0.138-0.52,0.05-0.774c-0.088-0.254-0.275-0.462-0.519-0.577l-3.563-1.676c-0.493-0.233-1.078-0.028-1.321,0.459
	L2.605,26.117c-0.12,0.241-0.138,0.521-0.05,0.774c0.088,0.254,0.275,0.461,0.519,0.576l3.563,1.676
	c0.138,0.064,0.282,0.096,0.425,0.096c0.368,0,0.721-0.203,0.896-0.555l0.596-1.195l2.349,1.9c-0.245,0.354-0.372,0.772-0.348,1.211
	c0.029,0.533,0.268,1.022,0.672,1.377l1.176,1.029c0.163,0.143,0.348,0.251,0.544,0.334c0.048,0.501,0.276,0.96,0.66,1.295
	l1.175,1.027c0.368,0.322,0.84,0.499,1.331,0.499c0.079,0,0.155-0.017,0.232-0.024c0.088,0.123,0.188,0.24,0.305,0.344l1.176,1.027
	c0.325,0.284,0.733,0.447,1.161,0.483c0.115,0.263,0.282,0.502,0.506,0.696l1.176,1.03c0.367,0.321,0.839,0.498,1.33,0.498
	c0.428,0,0.841-0.138,1.182-0.382c0.012,0.006,0.019,0.018,0.031,0.021c0.917,0.422,2.015,0.645,3.175,0.645h0.002
	c2.582,0,4.055-1.928,4.579-2.775c2.479-0.938,3.46-3.242,3.509-3.36c0.008-0.019,0.006-0.037,0.012-0.056
	c0.8-0.58,1.294-1.277,1.537-1.707c0.688-0.088,1.32-0.301,1.849-0.645c1.128-0.732,1.677-1.98,1.546-3.509
	c-0.023-0.287-0.177-0.527-0.391-0.694l1.354-0.9l0.659,1.321c0.174,0.351,0.527,0.554,0.896,0.554c0.143,0,0.287-0.029,0.424-0.095
	l3.563-1.677c0.243-0.115,0.431-0.323,0.519-0.577S46.516,25.849,46.395,25.606z M6.604,26.918l-1.752-0.824l6.614-13.271
	l1.753,0.824L6.604,26.918z M13.59,29.384c0.151-0.164,0.37-0.258,0.601-0.258c0.201,0,0.393,0.07,0.54,0.199
	c0.153,0.135,0.244,0.316,0.254,0.513c0.01,0.194-0.059,0.384-0.194,0.529l-1.046,1.136c0,0.001-0.005,0.003-0.013,0.003
	l-1.188-0.987L13.59,29.384z M16.833,31.104c0.151-0.164,0.37-0.258,0.6-0.258c0.201,0,0.394,0.071,0.541,0.201
	c0.153,0.135,0.243,0.314,0.254,0.512c0.007,0.144-0.041,0.275-0.113,0.397c-0.078,0.065-0.161,0.126-0.231,0.202l-1.388,1.508
	c-0.109,0.119-0.197,0.251-0.273,0.389l-0.098,0.105c0,0-0.005,0.002-0.012,0.002l-1.188-0.986L16.833,31.104z M19.957,33.256
	c0.201,0,0.393,0.071,0.54,0.2c0.153,0.135,0.244,0.316,0.254,0.513c0.01,0.194-0.059,0.382-0.194,0.529l-1.387,1.507
	c0,0.001-0.005,0.003-0.013,0.003l-1.14-0.946l1.49-1.617c0.022-0.022,0.037-0.051,0.058-0.076
	C19.684,33.302,19.814,33.256,19.957,33.256z M21.999,38.219l-1.188-0.987l1.08-1.172c0.151-0.164,0.371-0.259,0.602-0.259
	c0.201,0,0.393,0.071,0.541,0.201c0.153,0.134,0.243,0.315,0.253,0.511c0.011,0.194-0.058,0.383-0.194,0.529l-1.08,1.174
	C22.011,38.216,22.006,38.219,21.999,38.219z M26.389,38.501L26.389,38.501c-0.619,0-1.203-0.084-1.726-0.236
	c0.237-0.289,0.407-0.617,0.509-0.968c1.064,0.49,1.995,0.704,2.691,0.784C27.453,38.321,26.969,38.501,26.389,38.501z
	 M36.782,30.28c-0.896,0.584-2.615,0.447-4.005-0.315l-2.641-1.448c-0.482-0.268-1.092-0.09-1.357,0.395
	c-0.266,0.482-0.09,1.092,0.396,1.357l2.64,1.449c0.59,0.324,1.205,0.559,1.822,0.715c-0.346,0.319-0.816,0.629-1.451,0.768
	c-0.56,0.121-2.252,0.492-5.02-1.227c-0.469-0.291-1.086-0.146-1.377,0.322c-0.291,0.469-0.146,1.086,0.322,1.377
	c1.75,1.087,3.438,1.635,5.046,1.635c0.022,0,0.045-0.002,0.067-0.004c-0.57,0.422-1.334,0.77-2.332,0.816
	c-0.082,0.014-2.067,0.246-4.599-1.669c-0.009-0.007-0.021-0.009-0.03-0.015c-0.435-0.351-0.967-0.543-1.519-0.586
	c-0.042-0.734-0.372-1.41-0.931-1.898c-0.449-0.395-1.023-0.602-1.611-0.646c-0.074-0.682-0.387-1.305-0.911-1.764
	c-0.672-0.589-1.62-0.775-2.481-0.592c-0.156-0.428-0.406-0.818-0.762-1.131c-1.056-0.922-2.783-0.858-3.795,0.091l-2.787-2.255
	l4.905-9.84l4.521,1.07c-0.014,0.026-0.035,0.047-0.046,0.075l-2.694,6.505c-0.104,0.252-0.101,0.537,0.009,0.787
	c0.11,0.25,0.318,0.444,0.575,0.537c0.083,0.03,2.054,0.724,4.031-0.26c1.286-0.639,2.251-1.804,2.877-3.468l1.298-0.303
	c1.541,1.718,7.103,7.558,12.445,8.634C37.301,29.78,37.1,30.075,36.782,30.28z M36.466,27.058
	c-5.071-1.824-10.342-7.985-10.401-8.056c-0.242-0.286-0.619-0.413-0.99-0.328l-2.421,0.565c-0.345,0.081-0.622,0.337-0.728,0.676
	c-0.439,1.408-1.121,2.355-2.026,2.813c-0.488,0.248-0.988,0.324-1.41,0.327l2.078-5.019l5.242-3.063l8.799,0.71
	c0.068,0.006,0.134-0.015,0.199-0.023l4.68,9.388L36.466,27.058z M42.396,26.408l-6.359-12.762l1.752-0.824l6.359,12.761
	L42.396,26.408z"/>
</svg>
