<?xml version="1.0" encoding="utf-8"?>
<!-- Generator: Adobe Illustrator 16.0.0, SVG Export Plug-In . SVG Version: 6.00 Build 0)  -->
<!DOCTYPE svg PUBLIC "-//W3C//DTD SVG 1.1//EN" "http://www.w3.org/Graphics/SVG/1.1/DTD/svg11.dtd">
<svg version="1.1" id="Layer_1" xmlns="http://www.w3.org/2000/svg" xmlns:xlink="http://www.w3.org/1999/xlink" x="0px" y="0px"
	 width="50px" height="50px" viewBox="0 0 50 50" enable-background="new 0 0 50 50" xml:space="preserve">
<g id="Layer_2" display="none">
	<g display="inline">
		<path d="M41.615,9.73H8.385c-0.276,0-0.5,0.224-0.5,0.5v22.154c0,0.189,0.107,0.363,0.277,0.447
			c2.705,1.353,4.461,1.741,5.261,1.854v6.93c0,0.189,0.107,0.361,0.276,0.447c0.071,0.035,0.147,0.053,0.224,0.053
			c0.106,0,0.212-0.033,0.3-0.102l7.232-5.424c1.114,0.098,2.198,0.146,3.229,0.146h0.001c17.229,0,17.431-13.446,17.431-13.583
			V10.23C42.115,9.955,41.893,9.73,41.615,9.73z M41.115,23.153c-0.002,0.514-0.223,12.583-16.431,12.583h-0.001
			c-1.059,0-2.179-0.053-3.33-0.156c-0.123-0.012-0.246,0.023-0.345,0.098l-6.585,4.938V34.23c0-0.274-0.223-0.498-0.497-0.5
			c-0.018,0-1.717-0.039-5.041-1.657V10.73h32.23V23.153z"/>
		<path d="M21.308,19.672c0.276,0,0.5-0.224,0.5-0.5c0-2.693,2.49-2.902,3.254-2.902
			c2.724,0,3.131,2.136,3.131,3.409c0,1.509-0.723,2.003-1.639,2.63c-0.928,0.635-1.968,1.347-2.116,3.159
			c-0.012,0.042-0.018,0.087-0.018,0.134v0.321c0,0.276,0.224,0.5,0.5,0.5s0.5-0.224,0.5-0.5c0-1.626,0.788-2.165,1.698-2.789
			c0.972-0.666,2.072-1.419,2.072-3.456c0-2.131-1.086-4.409-4.13-4.409c-1.962,0-4.254,1.022-4.254,3.902
			C20.808,19.448,21.031,19.672,21.308,19.672z"/>
		<path d="M25,28.691c-1.021,0-1.846,0.826-1.846,1.848c0,1.02,0.825,1.846,1.846,1.846
			c1.023,0,1.846-0.826,1.846-1.846C26.846,29.518,26.023,28.691,25,28.691z"/>
	</g>
</g>
<path d="M48,25.753c0-5.577-4.771-10.51-11.605-11.997c-1.385-0.299-2.816-0.451-4.258-0.451
	c-0.652,0-1.293,0.041-1.925,0.101C27.316,10.021,22.62,8,17.484,8c-1.405,0-2.805,0.152-4.161,0.454C6.656,9.942,2,14.875,2,20.45
	c0,4.321,2.831,8.362,7.41,10.614c0.14,0.479-0.032,1.785-2.079,3.942c-0.275,0.29-0.351,0.716-0.193,1.083
	c0.158,0.367,0.519,0.605,0.919,0.605c5.667,0,8.882-2.778,9.877-3.807c0.367-0.012,0.758-0.039,1.167-0.074
	c2.859,3.24,7.54,5.27,12.596,5.381C32.706,39.215,36,42,41.813,42c0.402,0,0.766-0.241,0.922-0.611
	c0.156-0.369,0.076-0.798-0.205-1.086c-2.098-2.154-2.275-3.453-2.135-3.925C45.096,34.128,48,30.082,48,25.753z M16.702,31.273
	c-0.023,0.028-2.085,2.555-6.407,3.248c2.077-3.11,0.744-4.709,0.557-4.907c-0.087-0.093-0.19-0.169-0.305-0.222
	C6.447,27.475,4,24.132,4,20.45c0-4.631,4.013-8.762,9.758-10.044C14.971,10.137,16.225,10,17.484,10
	c4.063,0,7.807,1.388,10.356,3.777c-0.025,0.005-0.05,0.014-0.074,0.019c-0.277,0.063-0.551,0.133-0.82,0.207
	c-0.232,0.063-0.463,0.129-0.69,0.199c-0.165,0.052-0.329,0.104-0.491,0.16c-0.4,0.136-0.79,0.283-1.171,0.443
	c-0.005,0.002-0.01,0.004-0.016,0.007c-3.641,1.532-6.366,4.125-7.587,7.238c-0.002,0.006-0.004,0.011-0.006,0.017
	c-0.136,0.349-0.252,0.704-0.35,1.064c-0.021,0.073-0.04,0.146-0.059,0.22c-0.075,0.306-0.135,0.615-0.181,0.929
	c-0.014,0.094-0.033,0.188-0.045,0.283c-0.046,0.392-0.077,0.789-0.077,1.19c0,0.397,0.033,0.794,0.081,1.188
	c0.01,0.08,0.019,0.16,0.03,0.24c0.056,0.383,0.132,0.762,0.232,1.137c0.018,0.066,0.04,0.133,0.06,0.199
	c0.101,0.352,0.22,0.698,0.359,1.041c0.02,0.047,0.035,0.096,0.055,0.143c0.155,0.365,0.335,0.723,0.533,1.074
	c0.022,0.039,0.037,0.08,0.059,0.119C17.305,30.9,16.933,30.984,16.702,31.273z M39.536,39.831
	c-4.415-0.675-6.527-3.146-6.625-3.263c-0.19-0.232-0.476-0.367-0.774-0.367c-4.844,0-9.317-1.934-11.833-5.053
	c0-0.002,0-0.002,0-0.002c-0.056-0.069-0.117-0.139-0.177-0.205c-0.04-0.045-0.081-0.09-0.114-0.133
	c-1.136-1.543-1.737-3.291-1.737-5.057c0-0.333,0.025-0.663,0.066-0.988c0.025-0.196,0.067-0.39,0.108-0.583
	c0.023-0.115,0.042-0.23,0.07-0.343c0.068-0.27,0.151-0.537,0.247-0.8c0.008-0.021,0.015-0.044,0.022-0.065
	c1.438-3.83,5.754-6.869,11.147-7.522c0.002,0,0.006-0.002,0.008-0.002c0.717-0.086,1.445-0.144,2.193-0.144
	c1.299,0,2.59,0.137,3.834,0.406C41.876,16.996,46,21.125,46,25.753c0,3.604-2.549,7.013-6.657,8.91
	c-0.313,0.114-0.563,0.399-0.759,0.862C38.208,36.414,38.152,37.822,39.536,39.831z"/>
</svg>
