<?xml version="1.0" encoding="utf-8"?>
<!-- Generator: Adobe Illustrator 16.0.0, SVG Export Plug-In . SVG Version: 6.00 Build 0)  -->
<!DOCTYPE svg PUBLIC "-//W3C//DTD SVG 1.1//EN" "http://www.w3.org/Graphics/SVG/1.1/DTD/svg11.dtd">
<svg version="1.1" id="Layer_1" xmlns="http://www.w3.org/2000/svg" xmlns:xlink="http://www.w3.org/1999/xlink" x="0px" y="0px"
	 width="50px" height="50px" viewBox="0 0 50 50" enable-background="new 0 0 50 50" xml:space="preserve">
<g id="Layer_2" display="none">
	<g display="inline">
		<path d="M41.615,9.73H8.385c-0.276,0-0.5,0.224-0.5,0.5v22.154c0,0.189,0.107,0.363,0.277,0.447
			c2.705,1.353,4.461,1.741,5.261,1.854v6.93c0,0.189,0.107,0.361,0.276,0.447c0.071,0.035,0.147,0.053,0.224,0.053
			c0.106,0,0.212-0.033,0.3-0.102l7.232-5.424c1.114,0.098,2.198,0.146,3.229,0.146h0.001c17.229,0,17.431-13.446,17.431-13.583
			V10.23C42.115,9.955,41.893,9.73,41.615,9.73z M41.115,23.153c-0.002,0.514-0.223,12.583-16.431,12.583h-0.001
			c-1.059,0-2.179-0.053-3.33-0.156c-0.123-0.012-0.246,0.023-0.345,0.098l-6.585,4.938V34.23c0-0.274-0.223-0.498-0.497-0.5
			c-0.018,0-1.717-0.039-5.041-1.657V10.73h32.23V23.153z"/>
		<path d="M21.308,19.672c0.276,0,0.5-0.224,0.5-0.5c0-2.693,2.49-2.902,3.254-2.902
			c2.724,0,3.131,2.136,3.131,3.409c0,1.509-0.723,2.003-1.639,2.63c-0.928,0.635-1.968,1.347-2.116,3.159
			c-0.012,0.042-0.018,0.087-0.018,0.134v0.321c0,0.276,0.224,0.5,0.5,0.5s0.5-0.224,0.5-0.5c0-1.626,0.788-2.165,1.698-2.789
			c0.972-0.666,2.072-1.419,2.072-3.456c0-2.131-1.086-4.409-4.13-4.409c-1.962,0-4.254,1.022-4.254,3.902
			C20.808,19.448,21.031,19.672,21.308,19.672z"/>
		<path d="M25,28.691c-1.021,0-1.846,0.826-1.846,1.848c0,1.02,0.825,1.846,1.846,1.846
			c1.023,0,1.846-0.826,1.846-1.846C26.846,29.518,26.023,28.691,25,28.691z"/>
	</g>
</g>
<g>
	<circle cx="24.999" cy="33.996" r="1"/>
	<path d="M24.999,18.996c-0.552,0-1,0.448-1,1v10c0,0.553,0.448,1,1,1c0.552,0,1-0.447,1-1v-10
		C25.998,19.444,25.551,18.996,24.999,18.996z"/>
	<path d="M45.545,38.264L27.607,8.486C27.048,7.556,26.072,7,25,7c-1.073,0-2.048,0.556-2.609,1.486L4.454,38.264
		c-0.585,0.971-0.602,2.188-0.043,3.176C4.962,42.417,5.954,43,7.063,43h35.873c1.109,0,2.102-0.583,2.653-1.561
		C46.146,40.451,46.13,39.232,45.545,38.264z M43.848,40.455C43.755,40.619,43.48,41,42.936,41H7.063
		c-0.545,0-0.819-0.381-0.912-0.545c-0.208-0.366-0.202-0.801,0.015-1.161L24.103,9.519C24.302,9.189,24.628,9,25,9
		c0.371,0,0.698,0.189,0.896,0.519l17.937,29.775C44.049,39.654,44.055,40.089,43.848,40.455z"/>
</g>
</svg>
