<?xml version="1.0" encoding="utf-8"?>
<!-- Generator: Adobe Illustrator 16.0.0, SVG Export Plug-In . SVG Version: 6.00 Build 0)  -->
<!DOCTYPE svg PUBLIC "-//W3C//DTD SVG 1.1//EN" "http://www.w3.org/Graphics/SVG/1.1/DTD/svg11.dtd">
<svg version="1.1" id="Layer_1" xmlns="http://www.w3.org/2000/svg" xmlns:xlink="http://www.w3.org/1999/xlink" x="0px" y="0px"
	 width="50px" height="50px" viewBox="0 0 50 50" enable-background="new 0 0 50 50" xml:space="preserve">
<g id="Layer_2" display="none">
	<g display="inline">
		<path d="M41.615,9.73H8.385c-0.276,0-0.5,0.224-0.5,0.5v22.154c0,0.189,0.107,0.363,0.277,0.447
			c2.705,1.353,4.461,1.741,5.261,1.854v6.93c0,0.189,0.107,0.361,0.276,0.447c0.071,0.035,0.147,0.053,0.224,0.053
			c0.106,0,0.212-0.033,0.3-0.102l7.232-5.426c1.114,0.1,2.198,0.146,3.229,0.146h0.001c17.229,0,17.431-13.445,17.431-13.583V10.23
			C42.115,9.955,41.893,9.73,41.615,9.73z M41.115,23.153c-0.002,0.514-0.223,12.583-16.431,12.583h-0.001
			c-1.059,0-2.179-0.053-3.33-0.156c-0.123-0.012-0.246,0.023-0.345,0.098l-6.585,4.938V34.23c0-0.274-0.223-0.498-0.497-0.5
			c-0.018,0-1.717-0.039-5.041-1.657V10.73h32.23V23.153z"/>
		<path d="M21.308,19.672c0.276,0,0.5-0.224,0.5-0.5c0-2.693,2.49-2.902,3.254-2.902c2.724,0,3.131,2.136,3.131,3.409
			c0,1.509-0.723,2.003-1.639,2.63c-0.93,0.635-1.97,1.347-2.118,3.159c-0.012,0.042-0.018,0.087-0.018,0.134v0.321
			c0,0.276,0.224,0.5,0.5,0.5s0.5-0.224,0.5-0.5c0-1.626,0.788-2.165,1.698-2.789c0.972-0.666,2.07-1.419,2.07-3.456
			c0-2.131-1.086-4.409-4.128-4.409c-1.962,0-4.254,1.022-4.254,3.902C20.808,19.448,21.031,19.672,21.308,19.672z"/>
		<path d="M25,28.691c-1.021,0-1.846,0.826-1.846,1.848c0,1.02,0.825,1.846,1.846,1.846c1.023,0,1.846-0.826,1.846-1.846
			C26.846,29.518,26.023,28.691,25,28.691z"/>
	</g>
</g>
<path d="M42.661,26.25L26,11.549V9h8c0.432,0,0.813-0.275,0.948-0.684C35.085,7.908,34.943,7.458,34.6,7.2L31.667,5L34.6,2.8
	c0.346-0.258,0.485-0.708,0.35-1.116C34.813,1.275,34.432,1,34,1h-9c-0.552,0-1,0.448-1,1v9.549L7.338,26.25
	C7.122,26.441,6.999,26.717,7,27.006l0.114,21c0.003,0.551,0.45,0.994,1,0.994H20h10h12c0.553,0,1-0.447,1-1V27
	C43,26.713,42.877,26.439,42.661,26.25z M26,3h5l-1.6,1.2C29.148,4.389,29,4.685,29,5s0.148,0.611,0.4,0.8L31,7h-5V3z M26,33h-2
	c-2.757,0-5,2.243-5,5v9h-4V29.475c2.631,0.301,5.834,0.541,9.385,0.541c3.305,0,6.907-0.213,10.615-0.771V47h-4v-9
	C31,35.243,28.757,33,26,33z M13.327,27.227c-1.419-0.192-2.59-0.391-3.448-0.551l10.906-9.622L13.327,27.227z M25.015,14.666
	l9.252,12.658c-7.088,1.002-13.821,0.703-18.664,0.18L25.015,14.666z M36.486,26.971l-7.211-9.863l10.414,9.188
	C38.621,26.553,37.552,26.777,36.486,26.971z M9.008,28.552c0.905,0.183,2.263,0.429,3.992,0.669V47H9.109L9.008,28.552z M21,47v-9
	c0-1.654,1.346-3,3-3h2c1.654,0,3,1.346,3,3v9H21z M37,47V28.912c1.327-0.244,2.663-0.538,4-0.885V47H37z"/>
</svg>
