<?xml version="1.0" encoding="utf-8"?>
<!-- Generator: Adobe Illustrator 16.0.0, SVG Export Plug-In . SVG Version: 6.00 Build 0)  -->
<!DOCTYPE svg PUBLIC "-//W3C//DTD SVG 1.1//EN" "http://www.w3.org/Graphics/SVG/1.1/DTD/svg11.dtd">
<svg version="1.1" id="Layer_1" xmlns="http://www.w3.org/2000/svg" xmlns:xlink="http://www.w3.org/1999/xlink" x="0px" y="0px"
	 width="50px" height="50px" viewBox="0 0 50 50" enable-background="new 0 0 50 50" xml:space="preserve">
<g id="Layer_2" display="none">
	<g display="inline">
		<path fill="#0F58DC" d="M41.615,9.73H8.385c-0.276,0-0.5,0.224-0.5,0.5v22.154c0,0.189,0.107,0.363,0.277,0.447
			c2.705,1.353,4.461,1.741,5.261,1.854v6.93c0,0.189,0.107,0.361,0.276,0.447c0.071,0.035,0.147,0.053,0.224,0.053
			c0.106,0,0.212-0.033,0.3-0.102l7.232-5.423c1.114,0.097,2.198,0.146,3.229,0.146h0.001c17.229,0,17.431-13.446,17.431-13.583
			V10.23C42.115,9.955,41.893,9.73,41.615,9.73z M41.115,23.153c-0.002,0.514-0.223,12.583-16.431,12.583h-0.001
			c-1.059,0-2.179-0.053-3.33-0.156c-0.123-0.012-0.246,0.023-0.345,0.098l-6.585,4.938V34.23c0-0.274-0.223-0.498-0.497-0.5
			c-0.018,0-1.717-0.039-5.041-1.657V10.73h32.23V23.153z"/>
		<path fill="#0F58DC" d="M21.308,19.672c0.276,0,0.5-0.224,0.5-0.5c0-2.693,2.49-2.902,3.254-2.902
			c2.724,0,3.131,2.136,3.131,3.409c0,1.509-0.723,2.003-1.639,2.63c-0.927,0.635-1.967,1.347-2.115,3.159
			c-0.012,0.042-0.018,0.087-0.018,0.134v0.321c0,0.276,0.224,0.5,0.5,0.5c0.276,0,0.5-0.224,0.5-0.5
			c0-1.626,0.788-2.165,1.698-2.789c0.972-0.666,2.073-1.419,2.073-3.456c0-2.131-1.086-4.409-4.131-4.409
			c-1.962,0-4.254,1.022-4.254,3.902C20.808,19.448,21.031,19.672,21.308,19.672z"/>
		<path fill="#0F58DC" d="M25,28.691c-1.021,0-1.846,0.826-1.846,1.848c0,1.02,0.825,1.846,1.846,1.846
			c1.023,0,1.846-0.826,1.846-1.846C26.846,29.518,26.023,28.691,25,28.691z"/>
	</g>
</g>
<g>
	<path fill="#0F58DC" d="M22.999,35.002h4c0.553,0,1-0.447,1-1v-4c0-0.553-0.447-1-1-1h-4c-0.552,0-1,0.447-1,1v4
		C21.999,34.555,22.447,35.002,22.999,35.002z M23.999,31.002h2v2h-2V31.002z"/>
	<path fill="#0F58DC" d="M31,35h4c0.553,0,1-0.447,1-1V24c0-0.552-0.447-1-1-1h-4c-0.553,0-1,0.448-1,1v10
		C30,34.553,30.447,35,31,35z M32,25h2v8h-2V25z"/>
	<path fill="#0F58DC" d="M39,35h4c0.553,0,1-0.447,1-1V16c0-0.552-0.447-1-1-1h-4c-0.553,0-1,0.448-1,1v18
		C38,34.553,38.447,35,39,35z M40,17h2v16h-2V17z"/>
	<path fill="#0F58DC" d="M47,8H3C2.448,8,2,8.448,2,9v32c0,0.553,0.448,1,1,1h44c0.553,0,1-0.447,1-1V9C48,8.448,47.553,8,47,8z
		 M46,40H4V10h42V40z"/>
	<path fill="#0F58DC" d="M7,22h10c0.552,0,1-0.448,1-1s-0.448-1-1-1H7c-0.552,0-1,0.448-1,1S6.448,22,7,22z"/>
	<path fill="#0F58DC" d="M7,26h10c0.552,0,1-0.447,1-1c0-0.552-0.448-1-1-1H7c-0.552,0-1,0.448-1,1C6,25.553,6.448,26,7,26z"/>
	<path fill="#0F58DC" d="M7,30h10c0.552,0,1-0.447,1-1s-0.448-1-1-1H7c-0.552,0-1,0.447-1,1S6.448,30,7,30z"/>
	<path fill="#0F58DC" d="M7.003,18.008h10c0.552,0,1-0.448,1-1c0-0.552-0.448-1-1-1h-10c-0.552,0-1,0.448-1,1
		C6.003,17.56,6.451,18.008,7.003,18.008z"/>
	<path fill="#0F58DC" d="M7,34h6c0.552,0,1-0.447,1-1s-0.448-1-1-1H7c-0.552,0-1,0.447-1,1S6.448,34,7,34z"/>
</g>
</svg>
