<?xml version="1.0" encoding="utf-8"?>
<!-- Generator: Adobe Illustrator 16.0.0, SVG Export Plug-In . SVG Version: 6.00 Build 0)  -->
<!DOCTYPE svg PUBLIC "-//W3C//DTD SVG 1.1//EN" "http://www.w3.org/Graphics/SVG/1.1/DTD/svg11.dtd">
<svg version="1.1" id="Layer_1" xmlns="http://www.w3.org/2000/svg" xmlns:xlink="http://www.w3.org/1999/xlink" x="0px" y="0px"
	 width="50px" height="50px" viewBox="-0.5 1.5 50 50" enable-background="new -0.5 1.5 50 50" xml:space="preserve">
<g id="Layer_2" display="none">
	<g display="inline">
		<path d="M41.615,9.73H8.385c-0.276,0-0.5,0.224-0.5,0.5v22.154c0,0.189,0.107,0.363,0.277,0.447
			c2.705,1.353,4.461,1.741,5.261,1.854v6.93c0,0.189,0.107,0.361,0.276,0.447c0.071,0.035,0.147,0.053,0.224,0.053
			c0.106,0,0.212-0.033,0.3-0.102l7.232-5.425c1.114,0.099,2.198,0.146,3.229,0.146h0.001c17.229,0,17.431-13.445,17.431-13.583
			V10.23C42.115,9.955,41.893,9.73,41.615,9.73z M41.115,23.153c-0.002,0.514-0.223,12.583-16.431,12.583h-0.001
			c-1.059,0-2.179-0.053-3.33-0.156c-0.123-0.012-0.246,0.023-0.345,0.098l-6.585,4.938V34.23c0-0.274-0.223-0.498-0.497-0.5
			c-0.018,0-1.717-0.039-5.041-1.657V10.73h32.23V23.153z"/>
		<path d="M21.308,19.672c0.276,0,0.5-0.224,0.5-0.5c0-2.693,2.49-2.902,3.254-2.902c2.724,0,3.131,2.136,3.131,3.409
			c0,1.509-0.723,2.003-1.639,2.63c-0.929,0.635-1.969,1.347-2.117,3.159c-0.012,0.042-0.018,0.087-0.018,0.134v0.321
			c0,0.276,0.224,0.5,0.5,0.5s0.5-0.224,0.5-0.5c0-1.626,0.788-2.165,1.698-2.789c0.972-0.666,2.071-1.419,2.071-3.456
			c0-2.131-1.086-4.409-4.129-4.409c-1.962,0-4.254,1.022-4.254,3.902C20.808,19.448,21.031,19.672,21.308,19.672z"/>
		<path d="M25,28.691c-1.021,0-1.846,0.826-1.846,1.848c0,1.02,0.825,1.846,1.846,1.846c1.023,0,1.846-0.826,1.846-1.846
			C26.846,29.518,26.023,28.691,25,28.691z"/>
	</g>
</g>
<path fill="#010101" d="M48.285,36.881c-0.189-0.24-0.479-0.381-0.785-0.381h-3v-25c0-0.552-0.447-1-1-1h-38c-0.552,0-1,0.448-1,1
	v25h-3c-0.306,0-0.596,0.141-0.785,0.381s-0.259,0.555-0.188,0.852l0.958,4C1.593,42.184,1.996,42.5,2.458,42.5h44.084
	c0.462,0,0.864-0.316,0.974-0.768l0.957-4C48.544,37.436,48.475,37.121,48.285,36.881z M6.5,12.5h36v24h-36V12.5z M45.754,40.5
	H3.247l-0.479-2h43.464L45.754,40.5z"/>
</svg>
